<svg width="1024" height="500" viewBox="0 0 1024 500" fill="none" xmlns="http://www.w3.org/2000/svg">
  <defs>
    <linearGradient id="bg" x1="43" y1="26" x2="954" y2="467" gradientUnits="userSpaceOnUse">
      <stop stop-color="#121428"/>
      <stop offset="0.5" stop-color="#1A1D33"/>
      <stop offset="1" stop-color="#11152A"/>
    </linearGradient>
    <radialGradient id="pink" cx="0" cy="0" r="1" gradientUnits="userSpaceOnUse" gradientTransform="translate(221 60) rotate(37.207) scale(261.091 154.966)">
      <stop stop-color="#F55978" stop-opacity="0.28"/>
      <stop offset="1" stop-color="#F55978" stop-opacity="0"/>
    </radialGradient>
    <radialGradient id="violet" cx="0" cy="0" r="1" gradientUnits="userSpaceOnUse" gradientTransform="translate(818 80) rotate(144.193) scale(255.637 156.683)">
      <stop stop-color="#B996FF" stop-opacity="0.2"/>
      <stop offset="1" stop-color="#B996FF" stop-opacity="0"/>
    </radialGradient>
    <linearGradient id="wordmark" x1="84" y1="181" x2="430" y2="181" gradientUnits="userSpaceOnUse">
      <stop stop-color="#F7F4EE"/>
      <stop offset="0.55" stop-color="#F58CA0"/>
      <stop offset="1" stop-color="#B996FF"/>
    </linearGradient>
    <linearGradient id="card" x1="0" y1="0" x2="1" y2="1">
      <stop stop-color="white" stop-opacity="0.07"/>
      <stop offset="1" stop-color="white" stop-opacity="0.03"/>
    </linearGradient>
  </defs>

  <rect width="1024" height="500" fill="#0B0D18"/>
  <rect width="1024" height="500" fill="url(#pink)"/>
  <rect width="1024" height="500" fill="url(#violet)"/>
  <rect x="24" y="20" width="976" height="460" rx="36" fill="url(#bg)"/>
  <rect x="24.5" y="20.5" width="975" height="459" rx="35.5" stroke="white" stroke-opacity="0.08"/>

  <g opacity="0.55" fill="white">
    <circle cx="105" cy="84" r="1.5"/>
    <circle cx="188" cy="127" r="1"/>
    <circle cx="620" cy="95" r="1"/>
    <circle cx="874" cy="114" r="1.5"/>
    <circle cx="912" cy="366" r="1"/>
    <circle cx="324" cy="395" r="1.5"/>
  </g>

  <g transform="translate(84 82)">
    <text x="0" y="74" fill="url(#wordmark)" font-family="Segoe UI, Arial, sans-serif" font-size="78" font-weight="800" letter-spacing="-0.05em">AstroDating</text>
    <text x="0" y="130" fill="#F7F4EE" fill-opacity="0.82" font-family="Segoe UI, Arial, sans-serif" font-size="30" font-weight="600">
      Match through real chemistry.
    </text>
    <text x="0" y="172" fill="#F7F4EE" fill-opacity="0.62" font-family="Segoe UI, Arial, sans-serif" font-size="24" font-weight="500">
      See attraction, communication, and long-term compatibility.
    </text>
  </g>

  <g transform="translate(84 256)">
    <rect x="0" y="0" width="196" height="128" rx="28" fill="url(#card)"/>
    <rect x="0.5" y="0.5" width="195" height="127" rx="27.5" stroke="white" stroke-opacity="0.08"/>
    <circle cx="54" cy="64" r="25" fill="#E94560" fill-opacity="0.16"/>
    <path d="M54 78C42 72 34 64 34 55C34 49 38.5 45 44 45C48.5 45 52 47.5 54 51C56 47.5 59.5 45 64 45C69.5 45 74 49 74 55C74 64 66 72 54 78Z" stroke="#F58CA0" stroke-width="2.4" fill="none"/>
    <text x="96" y="54" fill="#F7F4EE" font-family="Segoe UI, Arial, sans-serif" font-size="17" font-weight="700">Attraction</text>
    <text x="96" y="79" fill="#F7F4EE" fill-opacity="0.62" font-family="Segoe UI, Arial, sans-serif" font-size="13.5" font-weight="500">Venus + Mars</text>
    <text x="96" y="98" fill="#F7F4EE" fill-opacity="0.62" font-family="Segoe UI, Arial, sans-serif" font-size="13.5" font-weight="500">pull</text>
  </g>

  <g transform="translate(304 256)">
    <rect x="0" y="0" width="196" height="128" rx="28" fill="url(#card)"/>
    <rect x="0.5" y="0.5" width="195" height="127" rx="27.5" stroke="white" stroke-opacity="0.08"/>
    <circle cx="54" cy="64" r="25" fill="#B996FF" fill-opacity="0.14"/>
    <path d="M43 72C43 61.5 48.5 56 54 56C59.5 56 65 61.5 65 72" stroke="#C8AEFF" stroke-width="2.4" stroke-linecap="round"/>
    <circle cx="54" cy="48" r="8" stroke="#C8AEFF" stroke-width="2.4" fill="none"/>
    <text x="96" y="54" fill="#F7F4EE" font-family="Segoe UI, Arial, sans-serif" font-size="16" font-weight="700">Communication</text>
    <text x="96" y="79" fill="#F7F4EE" fill-opacity="0.62" font-family="Segoe UI, Arial, sans-serif" font-size="13.5" font-weight="500">Mercury</text>
    <text x="96" y="98" fill="#F7F4EE" fill-opacity="0.62" font-family="Segoe UI, Arial, sans-serif" font-size="13.5" font-weight="500">patterns</text>
  </g>

  <g transform="translate(524 256)">
    <rect x="0" y="0" width="196" height="128" rx="28" fill="url(#card)"/>
    <rect x="0.5" y="0.5" width="195" height="127" rx="27.5" stroke="white" stroke-opacity="0.08"/>
    <circle cx="54" cy="64" r="25" fill="#F7F4EE" fill-opacity="0.08"/>
    <path d="M44 74C48 64 52 58 61 52" stroke="#F7F4EE" stroke-opacity="0.84" stroke-width="2.4" stroke-linecap="round"/>
    <path d="M61 52L68 54M61 52L63 59" stroke="#F7F4EE" stroke-opacity="0.84" stroke-width="2.4" stroke-linecap="round"/>
    <text x="96" y="54" fill="#F7F4EE" font-family="Segoe UI, Arial, sans-serif" font-size="17" font-weight="700">Long-term</text>
    <text x="96" y="79" fill="#F7F4EE" fill-opacity="0.62" font-family="Segoe UI, Arial, sans-serif" font-size="13.5" font-weight="500">Saturn</text>
    <text x="96" y="98" fill="#F7F4EE" fill-opacity="0.62" font-family="Segoe UI, Arial, sans-serif" font-size="13.5" font-weight="500">stability</text>
  </g>

  <g transform="translate(778 101)">
    <rect x="0" y="0" width="158" height="158" rx="30" fill="white" fill-opacity="0.05"/>
    <rect x="0.5" y="0.5" width="157" height="157" rx="29.5" stroke="white" stroke-opacity="0.08"/>
    <g transform="translate(15 15)">
      <rect width="128" height="128" rx="24" fill="#111424"/>
      <path
        d="M64 98C40 82 24 66 24 48C24 36 33 28 44 28C53 28 60 33 64 40C68 33 75 28 84 28C95 28 104 36 104 48C104 66 88 82 64 98Z"
        stroke="#E94560"
        stroke-width="2.5"
        stroke-opacity="0.42"
        fill="none"
      />
      <path
        d="M64 26L74.3 51.7H104L80 69.1L89.4 97L64 80.2L38.6 97L48 69.1L24 51.7H53.7L64 26Z"
        fill="#F7F4EE"
      />
    </g>
  </g>
</svg>
