<svg width="1024" height="500" viewBox="0 0 1024 500" fill="none" xmlns="http://www.w3.org/2000/svg">
  <defs>
    <linearGradient id="bg" x1="80" y1="36" x2="928" y2="470" gradientUnits="userSpaceOnUse">
      <stop stop-color="#0D1020"/>
      <stop offset="0.58" stop-color="#171A2D"/>
      <stop offset="1" stop-color="#11152A"/>
    </linearGradient>
    <radialGradient id="glow" cx="0" cy="0" r="1" gradientUnits="userSpaceOnUse" gradientTransform="translate(768 122) rotate(144.221) scale(202.353 134.721)">
      <stop stop-color="#F55978" stop-opacity="0.18"/>
      <stop offset="1" stop-color="#F55978" stop-opacity="0"/>
    </radialGradient>
    <linearGradient id="wordmark" x1="112" y1="232" x2="470" y2="232" gradientUnits="userSpaceOnUse">
      <stop stop-color="#F7F4EE"/>
      <stop offset="0.5" stop-color="#F28BA2"/>
      <stop offset="1" stop-color="#B996FF"/>
    </linearGradient>
  </defs>

  <rect width="1024" height="500" fill="#0B0D18"/>
  <rect width="1024" height="500" fill="url(#glow)"/>
  <rect x="28" y="24" width="968" height="452" rx="34" fill="url(#bg)"/>
  <rect x="28.5" y="24.5" width="967" height="451" rx="33.5" stroke="white" stroke-opacity="0.07"/>

  <g opacity="0.52" fill="white">
    <circle cx="116" cy="92" r="1.5"/>
    <circle cx="224" cy="146" r="1"/>
    <circle cx="812" cy="102" r="1.5"/>
    <circle cx="888" cy="156" r="1"/>
    <circle cx="746" cy="374" r="1.5"/>
    <circle cx="152" cy="392" r="1"/>
  </g>

  <g transform="translate(112 142)">
    <text x="0" y="78" fill="url(#wordmark)" font-family="Segoe UI, Arial, sans-serif" font-size="82" font-weight="800" letter-spacing="-0.05em">AstroDating</text>
    <text x="2" y="132" fill="#F7F4EE" fill-opacity="0.78" font-family="Segoe UI, Arial, sans-serif" font-size="28" font-weight="500">
      Real astrology for real attraction.
    </text>
    <text x="2" y="172" fill="#F7F4EE" fill-opacity="0.58" font-family="Segoe UI, Arial, sans-serif" font-size="24" font-weight="500">
      Birth charts. Synastry. Better matches.
    </text>
  </g>

  <g transform="translate(726 132)">
    <rect x="0" y="0" width="184" height="184" rx="30" fill="white" fill-opacity="0.04"/>
    <rect x="0.5" y="0.5" width="183" height="183" rx="29.5" stroke="white" stroke-opacity="0.08"/>
    <g transform="translate(28 28)">
      <rect width="128" height="128" rx="24" fill="#111424"/>
      <path
        d="M64 98C40 82 24 66 24 48C24 36 33 28 44 28C53 28 60 33 64 40C68 33 75 28 84 28C95 28 104 36 104 48C104 66 88 82 64 98Z"
        stroke="#E94560"
        stroke-width="2.5"
        stroke-opacity="0.42"
        fill="none"
      />
      <path
        d="M64 26L74.3 51.7H104L80 69.1L89.4 97L64 80.2L38.6 97L48 69.1L24 51.7H53.7L64 26Z"
        fill="#F7F4EE"
      />
    </g>
  </g>
</svg>
